<svg width="932" height="257" viewBox="0 0 932 257" fill="none" xmlns="http://www.w3.org/2000/svg">
<path d="M333.158 84.2727V157H317.782V84.2727H333.158ZM371.591 157H345.809V84.2727H371.804C379.119 84.2727 385.416 85.7287 390.696 88.6406C395.975 91.5289 400.035 95.6837 402.876 101.105C405.741 106.527 407.173 113.013 407.173 120.565C407.173 128.141 405.741 134.652 402.876 140.097C400.035 145.542 395.951 149.72 390.625 152.632C385.322 155.544 378.977 157 371.591 157ZM361.186 143.825H370.951C375.497 143.825 379.32 143.02 382.422 141.411C385.547 139.777 387.89 137.256 389.453 133.847C391.039 130.414 391.832 125.987 391.832 120.565C391.832 115.191 391.039 110.8 389.453 107.391C387.89 103.982 385.558 101.472 382.457 99.8622C379.356 98.2524 375.532 97.4474 370.987 97.4474H361.186V143.825ZM441.708 84.2727H460.671L480.699 133.136H481.551L501.58 84.2727H520.543V157H505.628V109.663H505.025L486.203 156.645H476.047L457.226 109.486H456.623V157H441.708V84.2727ZM548.482 158.03C545.001 158.03 541.9 157.426 539.178 156.219C536.455 154.988 534.301 153.177 532.714 150.786C531.152 148.371 530.371 145.364 530.371 141.766C530.371 138.735 530.927 136.19 532.04 134.131C533.152 132.071 534.668 130.414 536.585 129.159C538.503 127.904 540.681 126.957 543.119 126.318C545.581 125.679 548.162 125.229 550.861 124.969C554.033 124.637 556.59 124.33 558.531 124.045C560.473 123.738 561.881 123.288 562.757 122.696C563.633 122.104 564.071 121.228 564.071 120.068V119.855C564.071 117.606 563.361 115.866 561.94 114.635C560.544 113.404 558.555 112.788 555.974 112.788C553.252 112.788 551.086 113.392 549.476 114.599C547.866 115.783 546.801 117.275 546.28 119.074L532.288 117.938C532.999 114.623 534.395 111.759 536.479 109.344C538.562 106.905 541.249 105.035 544.54 103.733C547.854 102.407 551.689 101.744 556.045 101.744C559.076 101.744 561.976 102.099 564.746 102.81C567.539 103.52 570.013 104.621 572.168 106.112C574.346 107.604 576.062 109.521 577.317 111.865C578.571 114.185 579.199 116.967 579.199 120.21V157H564.852V149.436H564.426C563.55 151.141 562.378 152.644 560.911 153.946C559.443 155.224 557.679 156.231 555.619 156.964C553.56 157.675 551.18 158.03 548.482 158.03ZM552.814 147.589C555.039 147.589 557.004 147.152 558.709 146.276C560.413 145.376 561.751 144.169 562.722 142.653C563.692 141.138 564.178 139.422 564.178 137.504V131.716C563.704 132.024 563.053 132.308 562.224 132.568C561.42 132.805 560.508 133.03 559.49 133.243C558.472 133.432 557.454 133.61 556.436 133.776C555.418 133.918 554.495 134.048 553.666 134.166C551.891 134.427 550.34 134.841 549.014 135.409C547.688 135.977 546.659 136.747 545.925 137.717C545.191 138.664 544.824 139.848 544.824 141.268C544.824 143.328 545.57 144.902 547.061 145.991C548.576 147.057 550.494 147.589 552.814 147.589ZM604.643 141.304L604.678 123.158H606.88L624.352 102.455H641.717L618.244 129.869H614.657L604.643 141.304ZM590.935 157V84.2727H606.063V157H590.935ZM625.026 157L608.975 133.243L619.06 122.554L642.746 157H625.026ZM671.75 158.065C666.14 158.065 661.31 156.929 657.262 154.656C653.237 152.36 650.136 149.116 647.958 144.926C645.78 140.712 644.691 135.729 644.691 129.976C644.691 124.365 645.78 119.441 647.958 115.203C650.136 110.965 653.202 107.663 657.155 105.295C661.132 102.928 665.796 101.744 671.147 101.744C674.745 101.744 678.095 102.324 681.196 103.484C684.321 104.621 687.044 106.337 689.364 108.634C691.708 110.93 693.531 113.818 694.833 117.298C696.135 120.755 696.786 124.803 696.786 129.443V133.598H650.728V124.223H682.546C682.546 122.045 682.072 120.116 681.125 118.435C680.178 116.754 678.864 115.44 677.184 114.493C675.526 113.522 673.597 113.037 671.395 113.037C669.099 113.037 667.063 113.57 665.287 114.635C663.535 115.677 662.162 117.085 661.168 118.861C660.174 120.613 659.665 122.566 659.641 124.72V133.634C659.641 136.332 660.138 138.664 661.132 140.629C662.15 142.594 663.583 144.109 665.429 145.175C667.276 146.24 669.466 146.773 671.999 146.773C673.68 146.773 675.219 146.536 676.615 146.062C678.012 145.589 679.208 144.879 680.202 143.932C681.196 142.985 681.954 141.825 682.475 140.452L696.466 141.375C695.756 144.737 694.3 147.672 692.098 150.182C689.92 152.668 687.103 154.609 683.647 156.006C680.214 157.379 676.248 158.065 671.75 158.065ZM706.658 157V102.455H721.324V111.972H721.892C722.887 108.586 724.556 106.029 726.9 104.301C729.243 102.549 731.942 101.673 734.996 101.673C735.754 101.673 736.57 101.721 737.446 101.815C738.322 101.91 739.092 102.04 739.755 102.206V115.629C739.044 115.416 738.062 115.227 736.807 115.061C735.552 114.895 734.404 114.812 733.363 114.812C731.137 114.812 729.149 115.298 727.397 116.268C725.668 117.215 724.295 118.541 723.277 120.246C722.283 121.95 721.786 123.915 721.786 126.141V157H706.658Z" fill="#19305B"/>
<path d="M349.778 187.191V184.909H360.529V187.191H356.521V198H353.785V187.191H349.778ZM373.756 198H370.791L375.31 184.909H378.877L383.389 198H380.423L377.144 187.901H377.042L373.756 198ZM373.571 192.854H380.577V195.015H373.571V192.854ZM395.765 198V184.909H400.93C401.923 184.909 402.768 185.099 403.467 185.478C404.166 185.853 404.699 186.375 405.065 187.044C405.436 187.709 405.621 188.476 405.621 189.345C405.621 190.214 405.434 190.982 405.059 191.646C404.684 192.311 404.141 192.829 403.429 193.2C402.722 193.57 401.865 193.756 400.859 193.756H397.567V191.538H400.412C400.945 191.538 401.384 191.446 401.729 191.263C402.078 191.075 402.338 190.817 402.509 190.489C402.683 190.157 402.771 189.776 402.771 189.345C402.771 188.911 402.683 188.531 402.509 188.207C402.338 187.879 402.078 187.626 401.729 187.447C401.379 187.263 400.936 187.172 400.399 187.172H398.533V198H395.765ZM419.144 198.166C418.723 198.166 418.36 198.017 418.058 197.719C417.76 197.416 417.61 197.054 417.61 196.632C417.61 196.214 417.76 195.857 418.058 195.558C418.36 195.26 418.723 195.111 419.144 195.111C419.554 195.111 419.912 195.26 420.218 195.558C420.525 195.857 420.679 196.214 420.679 196.632C420.679 196.913 420.606 197.171 420.461 197.406C420.321 197.636 420.135 197.821 419.905 197.962C419.675 198.098 419.421 198.166 419.144 198.166ZM456.796 189.141C456.707 188.83 456.581 188.555 456.419 188.316C456.257 188.073 456.059 187.869 455.825 187.702C455.595 187.532 455.331 187.402 455.032 187.312C454.738 187.223 454.412 187.178 454.054 187.178C453.385 187.178 452.797 187.344 452.29 187.677C451.787 188.009 451.395 188.493 451.114 189.128C450.833 189.759 450.692 190.53 450.692 191.442C450.692 192.354 450.831 193.129 451.108 193.768C451.385 194.408 451.777 194.896 452.284 195.232C452.791 195.565 453.39 195.731 454.08 195.731C454.706 195.731 455.241 195.62 455.684 195.398C456.132 195.173 456.473 194.855 456.707 194.446C456.946 194.037 457.065 193.553 457.065 192.995L457.627 193.078H454.252V190.994H459.73V192.643C459.73 193.794 459.488 194.783 459.002 195.609C458.516 196.432 457.847 197.067 456.995 197.514C456.142 197.957 455.167 198.179 454.067 198.179C452.84 198.179 451.762 197.908 450.833 197.367C449.904 196.822 449.179 196.048 448.659 195.047C448.144 194.041 447.886 192.848 447.886 191.467C447.886 190.406 448.039 189.46 448.346 188.629C448.657 187.794 449.092 187.087 449.65 186.507C450.208 185.928 450.858 185.487 451.6 185.184C452.341 184.881 453.145 184.73 454.01 184.73C454.751 184.73 455.441 184.839 456.081 185.056C456.72 185.269 457.287 185.572 457.781 185.964C458.279 186.356 458.686 186.822 459.002 187.364C459.317 187.901 459.52 188.493 459.609 189.141H456.796ZM472.609 198V184.909H481.43V187.191H475.377V190.31H480.977V192.592H475.377V195.718H481.456V198H472.609ZM505.381 184.909V198H502.99L497.295 189.761H497.199V198H494.431V184.909H496.86L502.51 193.142H502.626V184.909H505.381ZM518.467 198V184.909H527.288V187.191H521.235V190.31H526.834V192.592H521.235V195.718H527.314V198H518.467ZM540.289 198V184.909H545.454C546.442 184.909 547.286 185.086 547.985 185.44C548.688 185.789 549.223 186.286 549.589 186.929C549.96 187.568 550.145 188.32 550.145 189.185C550.145 190.055 549.958 190.803 549.583 191.429C549.208 192.051 548.664 192.528 547.953 192.861C547.245 193.193 546.389 193.359 545.383 193.359H541.925V191.135H544.936C545.464 191.135 545.903 191.062 546.253 190.918C546.602 190.773 546.862 190.555 547.032 190.266C547.207 189.976 547.294 189.616 547.294 189.185C547.294 188.751 547.207 188.384 547.032 188.086C546.862 187.788 546.6 187.562 546.246 187.408C545.897 187.251 545.456 187.172 544.923 187.172H543.057V198H540.289ZM547.358 192.043L550.612 198H547.557L544.373 192.043H547.358ZM565.158 198H562.192L566.711 184.909H570.278L574.79 198H571.825L568.545 187.901H568.443L565.158 198ZM564.972 192.854H571.978V195.015H564.972V192.854ZM585.068 187.191V184.909H595.819V187.191H591.812V198H589.076V187.191H585.068ZM608.39 198V184.909H617.211V187.191H611.158V190.31H616.757V192.592H611.158V195.718H617.237V198H608.39ZM631.752 198.166C631.33 198.166 630.968 198.017 630.665 197.719C630.367 197.416 630.218 197.054 630.218 196.632C630.218 196.214 630.367 195.857 630.665 195.558C630.968 195.26 631.33 195.111 631.752 195.111C632.161 195.111 632.519 195.26 632.826 195.558C633.133 195.857 633.286 196.214 633.286 196.632C633.286 196.913 633.214 197.171 633.069 197.406C632.928 197.636 632.743 197.821 632.513 197.962C632.282 198.098 632.029 198.166 631.752 198.166ZM663.491 184.909V198H660.724V184.909H663.491ZM681.209 198H676.568V184.909H681.247C682.564 184.909 683.698 185.171 684.648 185.695C685.598 186.215 686.329 186.963 686.84 187.939C687.356 188.915 687.614 190.082 687.614 191.442C687.614 192.805 687.356 193.977 686.84 194.957C686.329 195.937 685.594 196.69 684.635 197.214C683.681 197.738 682.539 198 681.209 198ZM679.336 195.629H681.094C681.912 195.629 682.6 195.484 683.159 195.194C683.721 194.9 684.143 194.446 684.424 193.832C684.71 193.214 684.853 192.418 684.853 191.442C684.853 190.474 684.71 189.684 684.424 189.07C684.143 188.457 683.723 188.005 683.165 187.715C682.607 187.425 681.919 187.281 681.1 187.281H679.336V195.629ZM701.178 198.166C700.757 198.166 700.394 198.017 700.092 197.719C699.794 197.416 699.644 197.054 699.644 196.632C699.644 196.214 699.794 195.857 700.092 195.558C700.394 195.26 700.757 195.111 701.178 195.111C701.588 195.111 701.945 195.26 702.252 195.558C702.559 195.857 702.713 196.214 702.713 196.632C702.713 196.913 702.64 197.171 702.495 197.406C702.355 197.636 702.169 197.821 701.939 197.962C701.709 198.098 701.455 198.166 701.178 198.166Z" fill="#19305B"/>
<rect x="135" y="54" width="150" height="150" rx="75" fill="url(#paint0_linear_32_15)"/>
<rect x="135" y="54" width="150" height="150" rx="75" stroke="white"/>
<g filter="url(#filter0_d_32_15)">
<path d="M248.486 97.431C253.359 97.4312 257.309 101.381 257.309 106.254V154.724C257.309 159.597 253.359 163.547 248.486 163.547H170.723C165.85 163.547 161.899 159.597 161.899 154.724V106.254C161.899 101.381 165.85 97.4313 170.723 97.431H196.628V104.49H170.723C169.748 104.49 168.958 105.28 168.958 106.254V154.724C168.958 155.698 169.748 156.488 170.723 156.489H248.486C249.461 156.489 250.251 155.698 250.251 154.724V106.254C250.251 105.28 249.461 104.49 248.486 104.49H219.627V97.431H248.486Z" fill="#FFFCFC"/>
</g>
<mask id="path-5-inside-1_32_15" fill="white">
<rect x="174.527" y="116.129" width="25.8983" height="25.2216" rx="3.51563"/>
</mask>
<rect x="174.527" y="116.129" width="25.8983" height="25.2216" rx="3.51563" stroke="white" stroke-width="10.5469" mask="url(#path-5-inside-1_32_15)"/>
<line x1="207.523" y1="117.715" x2="242.052" y2="117.715" stroke="white" stroke-width="5.27344"/>
<line x1="207.523" y1="128.418" x2="242.052" y2="128.418" stroke="white" stroke-width="5.27344"/>
<line y1="-2.63672" x2="34.5321" y2="-2.63672" transform="matrix(0.99991 -0.0134138 0.0110855 0.999939 207.523 141.612)" stroke="white" stroke-width="5.27344"/>
<path d="M196.154 105.674V94.4496C196.154 93.4788 196.941 92.6918 197.912 92.6918H201.134C202.104 92.6918 202.855 91.8814 203.17 90.9631C204.715 86.4616 212.209 85.9698 213.613 90.9503C213.876 91.8847 214.627 92.6918 215.597 92.6918H217.977C218.948 92.6918 219.735 93.4788 219.735 94.4496V105.674C219.735 106.644 218.948 107.431 217.977 107.431H197.912C196.941 107.431 196.154 106.644 196.154 105.674Z" stroke="#FFFDFD" stroke-width="5.27344"/>
<defs>
<filter id="filter0_d_32_15" x="160.727" y="97.431" width="97.7539" height="68.46" filterUnits="userSpaceOnUse" color-interpolation-filters="sRGB">
<feFlood flood-opacity="0" result="BackgroundImageFix"/>
<feColorMatrix in="SourceAlpha" type="matrix" values="0 0 0 0 0 0 0 0 0 0 0 0 0 0 0 0 0 0 127 0" result="hardAlpha"/>
<feOffset dy="1.17188"/>
<feGaussianBlur stdDeviation="0.585938"/>
<feComposite in2="hardAlpha" operator="out"/>
<feColorMatrix type="matrix" values="0 0 0 0 0 0 0 0 0 0 0 0 0 0 0 0 0 0 0.25 0"/>
<feBlend mode="normal" in2="BackgroundImageFix" result="effect1_dropShadow_32_15"/>
<feBlend mode="normal" in="SourceGraphic" in2="effect1_dropShadow_32_15" result="shape"/>
</filter>
<linearGradient id="paint0_linear_32_15" x1="210" y1="54" x2="246.475" y2="212.203" gradientUnits="userSpaceOnUse">
<stop stop-color="#19305B"/>
<stop offset="1" stop-color="#3566C1"/>
</linearGradient>
</defs>
</svg>
